<?xml version="1.0" standalone="no"?>
<!DOCTYPE svg PUBLIC "-//W3C//DTD SVG 20010904//EN"
 "http://www.w3.org/TR/2001/REC-SVG-20010904/DTD/svg10.dtd">
<svg version="1.0" xmlns="http://www.w3.org/2000/svg"
 width="225.000000pt" height="225.000000pt" viewBox="0 0 225.000000 225.000000"
 preserveAspectRatio="xMidYMid meet">
<metadata>
Created by potrace 1.11, written by Peter Selinger 2001-2013
</metadata>
<g transform="translate(0.000000,225.000000) scale(0.100000,-0.100000)"
fill="#000000" stroke="none">
<path d="M853 2109 c-18 -5 -44 -24 -57 -42 -22 -29 -26 -44 -28 -127 l-3 -95
-346 -5 c-329 -5 -348 -6 -369 -25 -52 -47 -50 -19 -50 -831 l0 -757 26 -35
c50 -65 -8 -62 1099 -62 1107 0 1049 -3 1099 62 l26 35 0 757 c0 812 2 784
-50 831 -21 19 -40 20 -369 25 l-346 5 -3 95 c-2 82 -6 98 -28 127 -14 19 -39
36 -62 43 -46 12 -494 12 -539 -1z m531 -105 c3 -9 6 -49 6 -90 l0 -74 -265 0
-265 0 0 74 c0 41 3 81 6 90 5 14 38 16 259 16 221 0 254 -2 259 -16z m764
-266 c9 -9 12 -104 12 -364 0 -307 -2 -355 -16 -368 -14 -14 -120 -16 -1019
-16 -899 0 -1005 2 -1019 16 -14 13 -16 61 -16 368 0 260 3 355 12 364 17 17
2029 17 2046 0z m12 -1154 c0 -198 -4 -322 -10 -335 -10 -19 -32 -19 -1025
-19 -993 0 -1015 0 -1025 19 -6 13 -10 137 -10 335 l0 316 1035 0 1035 0 0
-316z"/>
<path d="M1074 1245 c-12 -8 -27 -28 -34 -45 -23 -56 22 -120 85 -120 39 0 69
21 85 60 23 56 -22 120 -85 120 -17 0 -40 -7 -51 -15z"/>
</g>
</svg>
